<svg xmlns="http://www.w3.org/2000/svg" version="1.1" xmlns:xlink="http://www.w3.org/1999/xlink" xmlns:svgjs="http://svgjs.com/svgjs" width="512" height="512" x="0" y="0" viewBox="0 0 32 32" style="enable-background:new 0 0 512 512" xml:space="preserve" class="">
	<g>
		<g xmlns="http://www.w3.org/2000/svg" id="Layer_37" data-name="Layer 37">
			<path d="m9 7a6 6 0 1 1 6 6 6 6 0 0 1 -6-6zm19.63 9.22a1 1 0 0 0 -.84-.2l-2.2.46-5.83 1.23a1 1 0 0 0 -.8 1v5.38a3.62 3.62 0 0 0 -.67-.07 2.54 2.54 0 0 0 -2.69 2.37 1.89 1.89 0 0 0 .1.63 2.65 2.65 0 0 0 2.59 1.73 2.66 2.66 0 0 0 2.61-1.75 2 2 0 0 0 .1-.55v-.16-6.78l6-1.27v4.85a3.1 3.1 0 0 0 -.69-.08 2.54 2.54 0 0 0 -2.69 2.37 2.18 2.18 0 0 0 .75 1.62 2.83 2.83 0 0 0 1.94.73 2.87 2.87 0 0 0 1.94-.73 2.18 2.18 0 0 0 .75-1.63v-8.37a1 1 0 0 0 -.37-.78zm-13.94 10.78a2.59 2.59 0 0 1 -.07-.63 3.52 3.52 0 0 1 3.38-3.37v-4.32a2 2 0 0 1 1.59-2l5-1.05a15 15 0 0 0 -23.59 11.37v1a1 1 0 0 0 1 1h14a3.31 3.31 0 0 1 -1.31-2z" fill="#000000" data-original="#000000" class="">
			</path>
		</g>
	</g>
</svg>
