<svg width="32" height="32" viewBox="0 0 32 32" fill="none" xmlns="http://www.w3.org/2000/svg">
<path d="M28 4H30V28H28V4ZM5 28C4.73478 28 4.48043 27.8946 4.29289 27.7071C4.10536 27.5196 4 27.2652 4 27V5C4.00008 4.8244 4.04639 4.65192 4.13429 4.49991C4.22218 4.34789 4.34855 4.2217 4.50069 4.13402C4.65284 4.04634 4.82538 4.00028 5.00098 4.00045C5.17657 4.00062 5.34903 4.04703 5.501 4.135L24.501 15.135C24.6525 15.2229 24.7783 15.3491 24.8658 15.5009C24.9532 15.6527 24.9992 15.8248 24.9992 16C24.9992 16.1752 24.9532 16.3473 24.8658 16.4991C24.7783 16.6509 24.6525 16.7771 24.501 16.865L5.501 27.865C5.34882 27.9534 5.17598 28 5 28V28Z" fill="white"/>
</svg>
