<svg width="32" height="32" viewBox="0 0 32 32" fill="none" xmlns="http://www.w3.org/2000/svg">
<path d="M27 28C26.824 28 26.6512 27.9534 26.499 27.865L7.499 16.865C7.34746 16.7771 7.22167 16.6509 7.13423 16.4991C7.0468 16.3473 7.00077 16.1752 7.00077 16C7.00077 15.8248 7.0468 15.6527 7.13423 15.5009C7.22167 15.3491 7.34746 15.2229 7.499 15.135L26.499 4.135C26.651 4.04703 26.8234 4.00062 26.999 4.00045C27.1746 4.00028 27.3472 4.04634 27.4993 4.13402C27.6514 4.2217 27.7778 4.34789 27.8657 4.49991C27.9536 4.65192 27.9999 4.8244 28 5V27C28 27.2652 27.8946 27.5196 27.7071 27.7071C27.5196 27.8946 27.2652 28 27 28ZM2 4H4V28H2V4Z" fill="white"/>
</svg>
