<svg width="42" height="42" viewBox="0 0 42 42" fill="none" xmlns="http://www.w3.org/2000/svg">
<path d="M15.1758 27.5752V13.6654L28.0156 11.5254V25.4352" stroke="#2D9CDB" stroke-width="3" stroke-linecap="round" stroke-linejoin="round"/>
<path d="M11.9463 30.7832C13.7191 30.7832 15.1563 29.3461 15.1563 27.5732C15.1563 25.8004 13.7191 24.3633 11.9463 24.3633C10.1735 24.3633 8.73633 25.8004 8.73633 27.5732C8.73633 29.3461 10.1735 30.7832 11.9463 30.7832Z" stroke="#2D9CDB" stroke-width="3" stroke-linecap="round" stroke-linejoin="round"/>
<path d="M24.8252 28.7324C26.598 28.7324 28.0352 27.2953 28.0352 25.5225C28.0352 23.7496 26.598 22.3125 24.8252 22.3125C23.0524 22.3125 21.6152 23.7496 21.6152 25.5225C21.6152 27.2953 23.0524 28.7324 24.8252 28.7324Z" stroke="#2D9CDB" stroke-width="3" stroke-linecap="round" stroke-linejoin="round"/>
</svg>
