<svg width="32" height="32" viewBox="0 0 32 32" fill="none" xmlns="http://www.w3.org/2000/svg">
<path d="M10.1 23.2V8.3C10.1 6.47746 8.62254 5 6.8 5C4.97746 5 3.5 6.47746 3.5 8.3V23.2C3.5 25.0225 4.97746 26.5 6.8 26.5C8.62254 26.5 10.1 25.0225 10.1 23.2Z" fill="#007BFF"/>
<path d="M27.8 23.2V8.3C27.8 6.47746 26.3225 5 24.5 5C22.6774 5 21.2 6.47746 21.2 8.3V23.2C21.2 25.0225 22.6774 26.5 24.5 26.5C26.3225 26.5 27.8 25.0225 27.8 23.2Z" fill="#007BFF"/>
<path d="M19.1 18.75V11.25C19.1 9.45507 17.6449 8 15.85 8C14.0551 8 12.6 9.45507 12.6 11.25V18.75C12.6 20.5449 14.0551 22 15.85 22C17.6449 22 19.1 20.5449 19.1 18.75Z" fill="#007BFF"/>
</svg>
